<?xml version="1.0" standalone="no"?>
<!DOCTYPE svg PUBLIC "-//W3C//DTD SVG 20010904//EN"
 "http://www.w3.org/TR/2001/REC-SVG-20010904/DTD/svg10.dtd">
<svg version="1.0" xmlns="http://www.w3.org/2000/svg"
 width="719.000000pt" height="719.000000pt" viewBox="0 0 719.000000 719.000000"
 preserveAspectRatio="xMidYMid meet">
<metadata>
Created by potrace 1.11, written by Peter Selinger 2001-2013
</metadata>
<g transform="translate(0.000000,719.000000) scale(0.100000,-0.100000)"
fill="#000000" stroke="none">
<path d="M3858 6670 c-9 -6 -27 -9 -40 -8 -20 3 -23 -2 -26 -37 -3 -34 1 -43
25 -62 27 -22 27 -23 10 -40 -18 -17 -19 -17 -43 12 -13 17 -24 41 -24 56 0
28 -16 49 -38 49 -8 0 -38 -20 -66 -45 -51 -43 -55 -45 -104 -40 -30 3 -54 0
-57 -6 -4 -5 -19 -7 -34 -4 -20 4 -32 0 -46 -15 -10 -11 -23 -20 -30 -20 -6 0
-22 -11 -35 -25 -19 -20 -33 -25 -71 -25 -26 0 -51 5 -54 10 -4 6 -15 8 -25 5
-10 -3 -21 -1 -25 5 -4 6 -18 15 -31 20 -20 8 -23 14 -18 37 4 16 11 34 16 40
26 33 -21 56 -62 31 -15 -10 -22 -9 -38 5 -10 9 -28 17 -39 17 -31 0 -110 -38
-117 -56 -3 -9 -13 -14 -21 -11 -19 8 -75 -21 -75 -38 0 -8 -16 -22 -35 -31
-44 -20 -50 -31 -34 -51 11 -13 10 -18 -6 -30 -11 -8 -32 -17 -47 -20 -15 -3
-33 -12 -39 -19 -9 -11 -25 -13 -60 -8 -31 4 -60 2 -79 -6 -26 -11 -33 -10
-50 5 -14 13 -28 16 -52 11 -18 -4 -62 -11 -98 -16 -36 -4 -78 -13 -93 -19
-16 -6 -43 -11 -61 -11 -20 0 -40 -8 -51 -20 -14 -16 -26 -19 -51 -14 -36 7
-52 -9 -33 -32 11 -13 9 -19 -10 -33 -25 -19 -26 -27 -19 -180 l3 -84 -52 -54
c-29 -29 -57 -53 -63 -53 -6 0 -15 11 -19 24 -7 17 -20 25 -51 30 -35 5 -46 3
-70 -18 -29 -24 -128 -45 -150 -31 -6 4 -26 1 -45 -5 -30 -10 -39 -8 -75 12
l-41 23 -20 -27 c-12 -16 -30 -28 -41 -28 -11 0 -31 -9 -45 -20 -14 -11 -39
-20 -55 -20 -35 0 -44 -20 -28 -61 17 -39 1 -60 -31 -41 -11 7 -24 10 -29 7
-6 -4 -10 -46 -10 -95 0 -85 -1 -91 -30 -123 -17 -19 -30 -39 -30 -44 0 -6 -9
-18 -20 -28 -11 -10 -20 -24 -20 -31 0 -7 -9 -18 -20 -24 -11 -6 -27 -24 -35
-40 -8 -16 -25 -30 -37 -32 -18 -2 -23 -9 -23 -34 0 -22 -9 -38 -31 -57 -57
-48 -54 -137 3 -122 31 7 66 -12 59 -32 -4 -9 -1 -22 6 -31 11 -12 9 -17 -10
-30 -31 -21 -28 -36 19 -82 24 -23 39 -45 35 -52 -25 -51 -57 -94 -72 -96 -11
-2 -23 -8 -28 -12 -12 -12 53 -99 86 -116 57 -30 51 -142 -12 -239 -44 -67
-48 -100 -15 -100 31 0 47 -15 41 -38 -3 -12 0 -27 7 -35 9 -11 6 -18 -16 -34
-15 -11 -27 -26 -27 -33 0 -23 -20 -28 -40 -10 -10 9 -24 14 -29 10 -15 -8
-14 -38 1 -53 9 -9 7 -19 -11 -43 -17 -23 -22 -39 -17 -61 3 -16 1 -61 -5
-101 -7 -54 -7 -89 3 -142 12 -66 15 -71 45 -80 18 -6 43 -21 56 -33 13 -12
28 -22 33 -22 6 0 21 -12 35 -26 13 -14 50 -44 82 -66 l58 -39 -6 -89 c-5 -89
-5 -90 23 -107 15 -9 36 -27 47 -40 11 -13 31 -29 45 -36 24 -12 25 -17 28
-111 2 -73 -1 -103 -11 -115 -8 -9 -19 -31 -26 -50 -14 -42 -1 -61 40 -61 23
0 31 -7 42 -32 17 -40 34 -55 67 -60 27 -3 30 -21 15 -85 -7 -30 -5 -34 21
-44 37 -14 110 -6 132 15 15 12 34 14 98 10 43 -3 94 -12 112 -20 31 -14 35
-14 68 5 44 26 84 27 117 1 14 -11 34 -20 46 -20 12 0 25 -11 33 -27 20 -41
43 -51 67 -29 19 18 21 18 55 -3 35 -22 46 -39 46 -72 0 -11 10 -23 23 -28 12
-5 31 -18 41 -30 25 -28 50 -27 90 4 21 16 46 25 69 25 20 0 51 9 70 20 33 20
37 20 75 5 35 -14 45 -15 68 -3 16 7 31 24 34 37 7 32 30 39 37 13 3 -12 16
-28 30 -37 23 -15 26 -15 44 1 15 14 21 14 34 4 12 -10 18 -10 30 0 8 7 15 18
15 25 0 24 27 37 49 24 17 -11 23 -10 39 4 10 9 28 17 41 17 28 0 38 26 17 49
-23 26 -20 39 12 43 16 2 27 9 27 18 0 10 -8 14 -24 12 -23 -2 -61 22 -61 39
0 4 12 22 26 39 20 24 24 34 15 43 -9 9 -16 9 -31 -1 -23 -14 -69 -6 -86 14
-6 8 -40 29 -75 47 -50 25 -65 38 -67 57 -4 27 -39 70 -57 70 -15 0 -75 74
-75 93 0 21 -26 39 -51 35 -16 -2 -25 -14 -33 -42 -14 -49 -26 -53 -62 -23
-16 13 -53 38 -81 57 -42 26 -53 39 -53 60 0 14 -5 31 -12 38 -8 8 -12 44 -11
103 1 84 3 92 28 119 30 32 28 43 -16 65 -43 23 -81 106 -72 159 8 57 35 107
72 134 17 12 31 27 31 33 0 5 16 26 36 45 37 37 64 39 64 6 0 -11 7 -25 15
-32 10 -8 15 -26 13 -49 -3 -33 0 -36 25 -39 15 -2 32 -12 37 -23 6 -10 17
-19 24 -19 7 0 21 -9 31 -20 23 -25 106 -28 125 -5 13 16 42 20 54 8 3 -4 26
-7 49 -8 28 0 53 -8 71 -23 16 -12 37 -22 47 -22 36 0 121 94 173 192 27 51
43 54 66 13 9 -16 28 -37 43 -45 24 -13 28 -13 50 8 29 27 43 28 86 1 l35 -21
18 24 c9 12 24 37 32 54 9 17 27 36 41 42 20 9 25 17 20 32 -4 13 1 24 19 36
25 16 27 15 62 -16 20 -17 47 -36 60 -42 12 -6 43 -37 68 -69 43 -56 48 -59
89 -59 48 0 67 -13 67 -46 0 -24 53 -84 75 -84 7 0 18 7 25 15 15 19 29 19 49
2 9 -8 43 -24 76 -36 33 -12 77 -38 99 -56 36 -32 39 -38 41 -95 2 -33 7 -66
13 -73 24 -29 35 -135 23 -213 -11 -66 -11 -80 4 -110 18 -39 43 -44 70 -14
10 11 26 20 35 20 21 0 52 -44 44 -63 -7 -20 22 -40 75 -52 41 -10 46 -13 43
-36 -1 -15 4 -32 13 -39 8 -7 15 -17 15 -22 0 -17 -71 -108 -84 -108 -14 0
-56 -42 -56 -56 0 -5 16 -29 35 -53 40 -50 46 -90 15 -98 -24 -6 -25 -20 -3
-45 16 -18 14 -21 -27 -63 -42 -43 -43 -44 -26 -69 24 -38 60 -58 108 -60 36
-2 44 -6 52 -29 12 -33 -4 -53 -57 -74 -23 -9 -42 -26 -48 -39 -5 -16 -17 -24
-32 -24 -28 0 -67 -38 -67 -67 0 -11 -7 -26 -15 -33 -20 -17 -10 -136 16 -171
10 -15 21 -40 25 -55 4 -16 14 -37 22 -46 14 -16 13 -20 -3 -38 -25 -28 -32
-25 -50 16 -8 20 -20 34 -27 32 -7 -3 -23 -24 -35 -49 -13 -24 -31 -49 -40
-56 -9 -7 -21 -23 -27 -35 -9 -17 -21 -23 -43 -23 -44 0 -52 -13 -23 -35 l25
-19 -22 -23 c-15 -16 -44 -28 -83 -36 -35 -8 -63 -19 -67 -28 -3 -8 -21 -21
-40 -30 -29 -14 -38 -15 -58 -4 -20 11 -28 10 -50 -4 -14 -9 -25 -23 -25 -30
0 -7 -7 -19 -15 -26 -8 -7 -15 -22 -15 -35 0 -27 -32 -58 -52 -50 -8 3 -21 -1
-28 -10 -7 -8 -18 -15 -25 -15 -7 0 -18 -7 -25 -15 -7 -8 -21 -15 -30 -15 -10
0 -31 -13 -47 -28 -15 -16 -36 -31 -46 -35 -13 -5 -16 -13 -12 -27 4 -14 1
-22 -12 -26 -10 -4 -25 -16 -34 -27 -13 -16 -19 -17 -36 -7 -16 11 -26 10 -53
-3 -18 -9 -36 -14 -41 -11 -27 16 -82 -57 -59 -80 15 -15 12 -42 -5 -56 -8 -7
-19 -27 -23 -44 -6 -22 -14 -31 -29 -31 -23 0 -78 -60 -68 -75 9 -14 31 -12
44 4 16 19 111 19 118 -1 9 -24 -13 -38 -41 -25 -34 15 -78 1 -94 -31 -10 -21
-20 -27 -46 -27 -42 0 -75 -32 -56 -55 7 -8 20 -15 30 -15 9 0 30 -18 45 -40
32 -46 50 -47 50 -2 0 17 8 39 17 48 16 17 18 17 38 -1 16 -14 22 -15 35 -5 8
7 25 10 36 7 29 -8 75 17 82 44 7 27 32 20 32 -9 0 -16 14 -28 53 -48 61 -30
87 -26 78 12 -6 21 3 35 65 94 40 39 76 70 81 70 5 0 11 7 15 16 3 9 26 37 51
62 l44 46 20 -27 c23 -32 43 -34 58 -7 6 12 21 20 36 20 17 0 27 8 34 25 5 14
17 25 28 25 21 0 52 29 52 48 0 7 4 20 9 30 5 9 12 25 15 35 3 10 15 17 28 17
13 0 35 8 48 18 13 9 43 24 65 33 31 13 41 23 43 43 2 17 12 30 26 36 12 4 30
20 39 34 10 14 27 26 38 26 12 0 28 14 40 35 25 41 46 55 87 55 19 0 35 8 43
21 13 19 16 20 44 5 41 -22 54 -20 65 9 11 30 26 32 40 5 14 -27 23 -25 63 10
19 16 39 30 45 30 21 0 30 34 25 91 -6 57 -5 59 23 71 16 6 48 27 72 46 32 26
46 32 55 23 6 -6 23 -11 37 -11 14 0 50 -9 80 -20 30 -11 64 -20 76 -20 24 0
47 29 57 72 4 14 17 39 29 55 37 46 49 73 42 95 -4 15 4 30 32 60 22 22 48 44
59 49 11 5 27 13 35 18 8 6 28 12 43 16 16 3 31 15 36 28 5 13 16 29 25 36 9
7 16 22 16 33 0 11 18 38 40 59 22 22 40 48 40 59 0 12 9 34 21 49 19 26 25
28 67 23 26 -2 51 -8 56 -13 6 -5 22 -9 37 -9 15 0 46 -10 69 -22 38 -21 43
-21 68 -7 32 17 62 71 86 154 10 33 22 73 27 89 5 16 9 60 9 98 0 37 4 76 9
86 6 9 12 29 15 43 8 36 92 119 152 150 47 24 49 27 52 70 2 35 -2 49 -18 64
-11 10 -20 24 -20 31 0 34 -157 224 -186 224 -6 0 -19 12 -29 26 -15 24 -15
28 0 60 16 34 86 94 110 94 6 0 25 15 43 33 39 40 41 73 7 142 -13 28 -25 60
-25 72 0 11 -14 33 -31 48 -18 14 -63 61 -102 103 -38 42 -85 88 -103 101 -28
20 -34 31 -34 60 0 46 -42 124 -103 195 -36 40 -47 60 -42 75 4 14 0 23 -15
31 -12 6 -20 21 -20 35 0 32 -19 111 -37 153 -12 27 -19 33 -36 28 -11 -3 -26
-1 -31 3 -6 5 -22 11 -36 13 -18 2 -26 10 -28 29 -2 21 4 31 31 48 35 22 54
58 38 74 -5 5 -24 10 -43 11 -33 2 -33 2 -36 54 -3 46 -6 54 -28 62 -29 11
-30 23 -4 41 20 14 20 14 -6 67 l-26 54 23 24 c19 21 21 28 11 42 -7 9 -17 28
-23 42 -6 14 -16 36 -22 48 -10 21 -7 27 23 52 29 24 33 32 24 47 -7 11 -26
19 -50 21 -38 3 -74 25 -74 45 0 5 -14 27 -31 48 -25 32 -35 38 -55 33 -28 -7
-43 19 -26 46 8 13 7 30 -4 65 -8 27 -14 61 -14 77 0 21 -6 31 -25 38 -31 12
-33 42 -3 62 14 9 19 20 15 31 -8 22 -65 23 -95 1 -22 -15 -25 -15 -48 7 -13
12 -24 29 -24 36 0 19 -28 60 -46 67 -8 3 -26 -2 -40 -11 -34 -22 -56 -3 -29
27 17 18 17 21 1 45 -14 21 -23 25 -45 20 -26 -5 -30 -2 -49 36 -12 23 -19 46
-16 51 4 5 -4 21 -17 34 -19 20 -29 23 -54 18 -16 -3 -38 -13 -47 -21 -22 -20
-46 -11 -58 22 -6 16 -17 25 -31 25 -11 0 -32 9 -46 20 -14 11 -36 20 -49 20
-13 0 -28 9 -34 20 -6 11 -18 20 -28 20 -9 0 -27 6 -39 13 -63 36 -86 46 -115
52 -18 4 -49 11 -68 17 -19 6 -41 13 -49 15 -11 3 -12 6 -3 15 19 19 15 26
-25 51 -23 14 -56 24 -81 25 -24 0 -54 9 -70 21 -16 11 -48 21 -73 23 -42 3
-44 4 -47 38 -2 19 -8 40 -12 46 -11 12 -8 94 4 113 6 9 3 19 -9 28 -24 17
-33 16 -69 -2 -32 -17 -41 -13 -41 18 0 24 -13 30 -37 17z m98 -91 c10 -17
-13 -36 -27 -22 -12 12 -4 33 11 33 5 0 12 -5 16 -11z m-920 -60 c10 -17 -13
-36 -27 -22 -12 12 -4 33 11 33 5 0 12 -5 16 -11z m899 0 c4 -5 18 -14 32 -20
24 -9 28 -35 5 -33 -7 1 -23 2 -37 3 -27 1 -41 21 -31 46 6 17 22 20 31 4z
m-237 -28 c5 -33 -14 -49 -34 -29 -13 13 -14 20 -4 37 14 27 34 23 38 -8z
m482 -207 c0 -8 -7 -14 -15 -14 -15 0 -21 21 -9 33 10 9 24 -2 24 -19z m76
-95 c10 -17 -13 -36 -27 -22 -12 12 -4 33 11 33 5 0 12 -5 16 -11z m-501 -349
c3 -5 15 -10 25 -10 22 0 50 -34 80 -96 17 -33 27 -44 45 -44 40 0 75 -19 85
-45 8 -21 14 -25 33 -19 12 3 30 13 39 21 24 22 44 6 22 -18 -13 -15 -14 -22
-5 -33 10 -12 9 -20 -4 -40 -10 -14 -23 -26 -30 -26 -7 0 -19 -7 -26 -16 -11
-14 -9 -19 11 -34 23 -18 24 -19 7 -38 -9 -10 -17 -33 -17 -50 0 -33 -21 -52
-59 -52 -11 0 -40 19 -64 43 -49 47 -133 83 -154 66 -7 -6 -17 -8 -22 -4 -6 3
-19 2 -28 -3 -13 -8 -18 -26 -20 -77 -3 -87 -10 -95 -78 -88 -58 6 -85 -5 -85
-37 0 -9 -9 -25 -20 -35 -19 -17 -21 -17 -38 -2 -21 19 -44 21 -70 8 -9 -5
-25 -12 -34 -15 -9 -3 -21 -20 -26 -38 -6 -24 -15 -34 -32 -36 -13 -2 -33 -10
-44 -17 -23 -15 -89 -6 -109 14 -20 20 -57 13 -67 -14 -10 -26 -24 -32 -35
-15 -10 16 -20 12 -66 -28 -24 -22 -57 -43 -74 -49 -37 -12 -43 -41 -19 -95
13 -29 15 -41 6 -50 -7 -7 -12 -18 -12 -26 0 -18 -115 -130 -138 -134 -9 -2
-19 -14 -22 -28 -5 -22 -11 -25 -51 -25 -43 0 -44 -1 -53 -40 -13 -61 -24 -85
-41 -85 -18 0 -18 0 -1 42 8 19 13 44 10 55 -6 23 11 63 27 63 6 0 28 14 50
32 36 29 39 35 39 82 0 45 3 54 32 77 31 26 32 27 19 69 l-12 42 44 42 c38 37
48 42 79 38 53 -6 74 10 88 67 6 28 18 55 26 62 8 6 14 19 14 28 0 9 5 22 12
29 6 6 11 35 11 64 -1 40 5 61 24 90 29 43 27 42 55 27 31 -17 127 -38 170
-39 28 0 40 5 50 23 19 34 40 126 42 184 1 38 7 57 24 75 12 14 22 29 22 34 0
17 54 72 76 78 16 5 26 0 38 -19 14 -21 24 -25 67 -25 40 0 57 6 85 28 18 15
34 32 34 38 0 27 51 46 65 24z m1007 -4131 c-3 -38 -15 -55 -31 -45 -15 10
-14 59 1 74 20 20 33 7 30 -29z m-228 -122 c15 -24 -5 -53 -35 -49 -39 4 -45
19 -19 47 26 28 38 28 54 2z m-79 -157 c0 -27 -22 -39 -31 -16 -8 22 3 49 19
43 6 -2 12 -14 12 -27z m-487 -346 c35 -17 41 -38 15 -48 -20 -8 -69 36 -59
53 9 14 7 14 44 -5z m-428 -178 c0 -7 10 -20 23 -29 21 -14 21 -16 5 -32 -16
-17 -18 -17 -44 4 -16 13 -35 19 -46 16 -12 -4 -18 -1 -18 9 0 9 9 16 20 16
11 0 23 7 26 15 8 19 34 20 34 1z"/>
<path d="M4415 6331 c-8 -15 3 -31 21 -31 9 0 14 7 12 17 -4 20 -24 28 -33 14z"/>
<path d="M3124 2649 c-10 -17 13 -36 27 -22 12 12 4 33 -11 33 -5 0 -12 -5
-16 -11z"/>
<path d="M4554 1398 c-3 -4 -2 -13 1 -18 4 -6 1 -17 -5 -25 -10 -12 -10 -18 0
-30 19 -23 43 -18 74 14 22 23 26 33 18 47 -11 19 -78 28 -88 12z"/>
<path d="M4394 1225 c-7 -18 3 -35 21 -35 21 0 28 19 15 35 -16 19 -29 19 -36
0z"/>
<path d="M1530 1001 c-14 -4 -26 -15 -28 -25 -5 -24 26 -86 43 -86 23 0 28 20
9 41 -14 15 -15 22 -5 32 9 9 16 7 29 -11 14 -18 24 -21 48 -16 28 5 34 2 53
-30 26 -41 22 -39 55 -26 20 7 26 17 26 38 0 40 -50 75 -109 77 -25 1 -57 4
-71 8 -14 3 -36 2 -50 -2z"/>
<path d="M4164 969 c-10 -17 13 -36 27 -22 12 12 4 33 -11 33 -5 0 -12 -5 -16
-11z"/>
<path d="M2020 934 c-10 -10 -23 -14 -42 -10 -21 4 -30 1 -38 -14 -13 -25 -13
-31 8 -58 17 -22 19 -22 47 -8 19 10 42 14 63 10 34 -7 42 5 18 26 -8 6 -16
23 -18 37 -4 32 -20 39 -38 17z"/>
<path d="M2354 936 c-8 -22 3 -49 19 -43 6 2 12 14 12 27 0 27 -22 39 -31 16z"/>
<path d="M2174 909 c-10 -17 23 -46 38 -31 8 8 8 15 -2 27 -15 18 -26 19 -36
4z"/>
<path d="M3174 909 c-10 -17 13 -36 27 -22 12 12 4 33 -11 33 -5 0 -12 -5 -16
-11z"/>
<path d="M2920 845 c-19 -20 -21 -27 -10 -40 19 -23 39 -18 51 12 10 27 6 53
-9 53 -5 0 -19 -11 -32 -25z"/>
<path d="M2285 826 c-15 -11 -17 -18 -9 -26 17 -17 49 -8 49 14 0 25 -16 30
-40 12z"/>
<path d="M2835 830 c-4 -7 -3 -16 3 -22 14 -14 45 -2 40 15 -6 16 -34 21 -43
7z"/>
</g>
</svg>
